<?xml version="1.0" encoding="utf-8"?>
<!-- Svg Vector Icons : http://www.onlinewebfonts.com/icon -->
<!DOCTYPE svg PUBLIC "-//W3C//DTD SVG 1.1//EN" "http://www.w3.org/Graphics/SVG/1.1/DTD/svg11.dtd">
<svg version="1.1" xmlns="http://www.w3.org/2000/svg" xmlns:xlink="http://www.w3.org/1999/xlink" x="0px" y="0px" viewBox="0 0 1000 1000" enable-background="new 0 0 1000 1000" xml:space="preserve" style="fill:rgb(3, 153, 255);">
<metadata> Svg Vector Icons : http://www.onlinewebfonts.com/icon </metadata>
<g><path d="M500,990c270.6,0,490-219.4,490-490S770.6,10,500,10S10,229.4,10,500S229.4,990,500,990z M731.1,312.9c41.8,52.2,67.1,118.7,67.8,191.2c-9.9-2.1-109.2-22.7-209-9.9c-2.1-5.3-4.3-10.5-6.5-15.8c-6.2-15-12.9-29.8-19.9-44.5C674.4,387.6,724.8,321.6,731.1,312.9z M498.7,200.1c76.3,0,146,29.3,199,77.3c-5.4,7.9-50.6,70-157.3,110.9c-49.2-92.4-103.7-168.3-112-179.7C450.9,203,474.5,200.1,498.7,200.1z M371,229.2c7.9,11.1,61.6,87.1,111.3,177.5c-140.4,38.1-264.1,37.6-277.6,37.4C224.3,348.9,287.1,269.7,371,229.2z M198.5,507c0-3.1,0.1-6.3,0.2-9.4c13.1,0.3,158.6,2.2,308.6-43.7c8.6,17.2,16.8,34.6,24.3,52.1c-4,1.1-7.9,2.4-11.8,3.7c-154.8,51.2-237.2,190.6-244,202.5C227.7,657.8,198.5,585.8,198.5,507z M498.7,813.9c-69.4,0-133.4-24.2-184.3-64.8c5.4-11.3,66.2-131.3,235.5-191.7c0.7-0.2,1.3-0.5,2-0.7c42.1,112,59.6,205.8,64,232.7C579.9,805.2,540.3,813.9,498.7,813.9z M666.4,761.4c-3.1-18.7-19.1-108.5-58.3-218.8c94.1-15.4,176.7,9.8,187,13.1C781.7,641.1,733.8,714.8,666.4,761.4z"/></g>
</svg>